<?xml version="1.0" standalone="no"?>
<!DOCTYPE svg PUBLIC "-//W3C//DTD SVG 20010904//EN"
 "http://www.w3.org/TR/2001/REC-SVG-20010904/DTD/svg10.dtd">
<svg version="1.0" xmlns="http://www.w3.org/2000/svg"
 width="260.000000pt" height="260.000000pt" viewBox="0 0 260.000000 260.000000"
 preserveAspectRatio="xMidYMid meet">
<metadata>
Created by potrace 1.11, written by Peter Selinger 2001-2013
</metadata>
<g transform="translate(0.000000,260.000000) scale(0.100000,-0.100000)"
fill="#000000" stroke="none">
<path d="M318 2028 c-169 -24 -276 -206 -209 -355 18 -38 188 -336 414 -723
49 -85 102 -177 116 -204 40 -75 95 -131 151 -155 107 -46 236 -17 305 68 11
14 61 96 112 184 l91 159 24 -38 c14 -22 55 -93 93 -159 78 -137 119 -185 184
-216 89 -42 221 -17 289 54 17 18 69 100 117 182 48 83 118 203 156 268 38 65
69 119 69 121 0 2 33 60 73 128 182 304 207 357 207 427 0 110 -78 217 -184
251 -30 9 -263 13 -1001 14 -529 0 -982 -2 -1007 -6z m584 -281 c5 -58 14 -78
137 -291 l131 -229 -72 -126 c-40 -69 -80 -138 -88 -152 -8 -14 -31 -53 -50
-87 -35 -63 -51 -76 -79 -67 -9 3 -95 144 -192 313 -98 169 -223 386 -279 484
-88 153 -100 179 -91 197 11 21 18 21 295 21 l283 0 5 -63z m568 43 c9 -17 6
-31 -17 -73 -57 -104 -148 -257 -153 -257 -4 0 -152 253 -177 302 -2 4 1 17 7
28 10 19 20 20 170 20 150 0 160 -1 170 -20z m811 4 c11 -14 9 -25 -21 -78
-93 -169 -514 -893 -528 -908 -34 -39 -47 -24 -177 202 l-127 219 55 93 c30
51 64 109 75 128 10 19 42 74 70 122 55 95 72 142 72 201 l0 37 284 0 c249 0
285 -2 297 -16z"/>
</g>
</svg>
